HIERARCHY
ROOT Root
{
  OFFSET 0.0 0.0 0.0
  CHANNELS 6 Xposition Yposition Zposition Zrotation Yrotation Xrotation
  JOINT Hips
  {
    OFFSET 0.0 100.0 0.0
    CHANNELS 6 Xposition Yposition Zposition Zrotation Yrotation Xrotation
    JOINT Spine1
    {
      OFFSET -0.013727 5.003763 -0.053727
      CHANNELS 3 Zrotation Yrotation Xrotation
      JOINT Spine2
      {
        OFFSET -0.0 7.125301 -0.029825
        CHANNELS 3 Zrotation Yrotation Xrotation
        JOINT Chest
        {
          OFFSET -1e-06 7.550063 -0.815971
          CHANNELS 3 Zrotation Yrotation Xrotation
          JOINT Neck1
          {
            OFFSET -0.181677 26.311295 -0.553348
            CHANNELS 3 Zrotation Yrotation Xrotation
            JOINT Neck2
            {
              OFFSET -3e-06 7.709397 2.302585
              CHANNELS 3 Zrotation Yrotation Xrotation
              JOINT Head
              {
                OFFSET -5e-06 6.128916 1.953709
                CHANNELS 3 Zrotation Yrotation Xrotation
                JOINT HeadEnd
                {
                  OFFSET 0.003598 16.065403 -1.835379
                  CHANNELS 3 Zrotation Yrotation Xrotation
                }
                JOINT Jaw
                {
                  OFFSET 0.002637 0.475592 3.094941
                  CHANNELS 3 Zrotation Yrotation Xrotation
                }
                JOINT LeftEye
                {
                  OFFSET 3.206381 5.380205 7.586883
                  CHANNELS 3 Zrotation Yrotation Xrotation
                }
                JOINT RightEye
                {
                  OFFSET -3.22244 5.361869 7.558234
                  CHANNELS 3 Zrotation Yrotation Xrotation
                }
              }
            }
          }
          JOINT LeftShoulder
          {
            OFFSET 1.621652 23.237164 5.113413
            CHANNELS 3 Zrotation Yrotation Xrotation
            JOINT LeftArm
            {
              OFFSET 14.919846 2e-06 -5.502326
              CHANNELS 3 Zrotation Yrotation Xrotation
              JOINT LeftForeArm
              {
                OFFSET 28.739307 0.0 -0.002588
                CHANNELS 3 Zrotation Yrotation Xrotation
                JOINT LeftHand
                {
                  OFFSET 27.093981 -1e-06 0.002609
                  CHANNELS 3 Zrotation Yrotation Xrotation
                  JOINT LeftHandThumb1
                  {
                    OFFSET 2.276482 -1.392045 3.191413
                    CHANNELS 3 Zrotation Yrotation Xrotation
                    JOINT LeftHandThumb2
                    {
                      OFFSET 4.012836 -1.828127 1.641654
                      CHANNELS 3 Zrotation Yrotation Xrotation
                      JOINT LeftHandThumb3
                      {
                        OFFSET 2.798515 0.0 -3e-06
                        CHANNELS 3 Zrotation Yrotation Xrotation
                        JOINT LeftHandThumbEnd
                        {
                          OFFSET 3.180793 -4e-06 4e-06
                          CHANNELS 3 Zrotation Yrotation Xrotation
                        }
                      }
                    }
                  }
                  JOINT LeftHandIndex1
                  {
                    OFFSET 3.247555 -0.531998 2.296169
                    CHANNELS 3 Zrotation Yrotation Xrotation
                    JOINT LeftHandIndex2
                    {
                      OFFSET 6.364578 0.01206 0.1786
                      CHANNELS 3 Zrotation Yrotation Xrotation
                      JOINT LeftHandIndex3
                      {
                        OFFSET 3.662364 0.0 0.0
                        CHANNELS 3 Zrotation Yrotation Xrotation
                        JOINT LeftHandIndex4
                        {
                          OFFSET 2.329242 4e-06 4e-06
                          CHANNELS 3 Zrotation Yrotation Xrotation
                          JOINT LeftHandIndexEnd
                          {
                            OFFSET 2.759615 -0.180537 -0.113024
                            CHANNELS 3 Zrotation Yrotation Xrotation
                          }
                        }
                      }
                    }
                  }
                  JOINT LeftHandMiddle1
                  {
                    OFFSET 3.163495 0.240981 1.000332
                    CHANNELS 3 Zrotation Yrotation Xrotation
                    JOINT LeftHandMiddle2
                    {
                      OFFSET 6.19078 -0.259278 -1.002548
                      CHANNELS 3 Zrotation Yrotation Xrotation
                      JOINT LeftHandMiddle3
                      {
                        OFFSET 4.35652 -4e-06 -1e-06
                        CHANNELS 3 Zrotation Yrotation Xrotation
                        JOINT LeftHandMiddle4
                        {
                          OFFSET 2.996877 -8e-06 0.0
                          CHANNELS 3 Zrotation Yrotation Xrotation
                          JOINT LeftHandMiddleEnd
                          {
                            OFFSET 2.304287 -0.294569 -0.031741
                            CHANNELS 3 Zrotation Yrotation Xrotation
                          }
                        }
                      }
                    }
                  }
                  JOINT LeftHandRing1
                  {
                    OFFSET 2.882643 -0.053652 -0.322543
                    CHANNELS 3 Zrotation Yrotation Xrotation
                    JOINT LeftHandRing2
                    {
                      OFFSET 5.854541 -0.486202 -1.373841
                      CHANNELS 3 Zrotation Yrotation Xrotation
                      JOINT LeftHandRing3
                      {
                        OFFSET 4.350578 0.0 3e-06
                        CHANNELS 3 Zrotation Yrotation Xrotation
                        JOINT LeftHandRing4
                        {
                          OFFSET 2.651321 7e-06 2e-06
                          CHANNELS 3 Zrotation Yrotation Xrotation
                          JOINT LeftHandRingEnd
                          {
                            OFFSET 1.936105 0.077687 -7.1e-05
                            CHANNELS 3 Zrotation Yrotation Xrotation
                          }
                        }
                      }
                    }
                  }
                  JOINT LeftHandPinky1
                  {
                    OFFSET 2.8655 -0.310005 -1.600378
                    CHANNELS 3 Zrotation Yrotation Xrotation
                    JOINT LeftHandPinky2
                    {
                      OFFSET 5.087849 -1.331141 -1.77123
                      CHANNELS 3 Zrotation Yrotation Xrotation
                      JOINT LeftHandPinky3
                      {
                        OFFSET 3.070974 4e-06 0.0
                        CHANNELS 3 Zrotation Yrotation Xrotation
                        JOINT LeftHandPinky4
                        {
                          OFFSET 1.549672 0.0 1e-06
                          CHANNELS 3 Zrotation Yrotation Xrotation
                          JOINT LeftHandPinkyEnd
                          {
                            OFFSET 1.944893 -0.157802 0.057219
                            CHANNELS 3 Zrotation Yrotation Xrotation
                          }
                        }
                      }
                    }
                  }
                }
              }
            }
          }
          JOINT RightShoulder
          {
            OFFSET -1.380118 23.180309 5.214158
            CHANNELS 3 Zrotation Yrotation Xrotation
            JOINT RightArm
            {
              OFFSET -15.037196 1.2e-05 -5.545604
              CHANNELS 3 Zrotation Yrotation Xrotation
              JOINT RightForeArm
              {
                OFFSET -28.736639 2e-06 -0.002597
                CHANNELS 3 Zrotation Yrotation Xrotation
                JOINT RightHand
                {
                  OFFSET -27.133619 -0.0 0.002613
                  CHANNELS 3 Zrotation Yrotation Xrotation
                  JOINT RightHandThumb1
                  {
                    OFFSET -2.274032 -1.383988 3.163127
                    CHANNELS 3 Zrotation Yrotation Xrotation
                    JOINT RightHandThumb2
                    {
                      OFFSET -4.011429 -1.827466 1.640914
                      CHANNELS 3 Zrotation Yrotation Xrotation
                      JOINT RightHandThumb3
                      {
                        OFFSET -2.794935 -4e-06 -3e-06
                        CHANNELS 3 Zrotation Yrotation Xrotation
                        JOINT RightHandThumbEnd
                        {
                          OFFSET -3.183852 4e-06 1e-06
                          CHANNELS 3 Zrotation Yrotation Xrotation
                        }
                      }
                    }
                  }
                  JOINT RightHandIndex1
                  {
                    OFFSET -3.253266 -0.520057 2.282866
                    CHANNELS 3 Zrotation Yrotation Xrotation
                    JOINT RightHandIndex2
                    {
                      OFFSET -6.341917 0.012471 0.178266
                      CHANNELS 3 Zrotation Yrotation Xrotation
                      JOINT RightHandIndex3
                      {
                        OFFSET -3.654871 -8e-06 -0.0
                        CHANNELS 3 Zrotation Yrotation Xrotation
                        JOINT RightHandIndex4
                        {
                          OFFSET -2.327586 0.0 1e-06
                          CHANNELS 3 Zrotation Yrotation Xrotation
                          JOINT RightHandIndexEnd
                          {
                            OFFSET -2.76179 -0.180656 -0.113078
                            CHANNELS 3 Zrotation Yrotation Xrotation
                          }
                        }
                      }
                    }
                  }
                  JOINT RightHandMiddle1
                  {
                    OFFSET -3.168106 0.246593 1.00103
                    CHANNELS 3 Zrotation Yrotation Xrotation
                    JOINT RightHandMiddle2
                    {
                      OFFSET -6.180828 -0.258836 -1.000895
                      CHANNELS 3 Zrotation Yrotation Xrotation
                      JOINT RightHandMiddle3
                      {
                        OFFSET -4.348901 0.0 -0.0
                        CHANNELS 3 Zrotation Yrotation Xrotation
                        JOINT RightHandMiddle4
                        {
                          OFFSET -3.00024 -4e-06 -2e-06
                          CHANNELS 3 Zrotation Yrotation Xrotation
                          JOINT RightHandMiddleEnd
                          {
                            OFFSET -2.30252 -0.29437 -0.031706
                            CHANNELS 3 Zrotation Yrotation Xrotation
                          }
                        }
                      }
                    }
                  }
                  JOINT RightHandRing1
                  {
                    OFFSET -2.88569 -0.067952 -0.308858
                    CHANNELS 3 Zrotation Yrotation Xrotation
                    JOINT RightHandRing2
                    {
                      OFFSET -5.854198 -0.48613 -1.373731
                      CHANNELS 3 Zrotation Yrotation Xrotation
                      JOINT RightHandRing3
                      {
                        OFFSET -4.33881 -4e-06 -0.0
                        CHANNELS 3 Zrotation Yrotation Xrotation
                        JOINT RightHandRing4
                        {
                          OFFSET -2.654903 -4e-06 4e-06
                          CHANNELS 3 Zrotation Yrotation Xrotation
                          JOINT RightHandRingEnd
                          {
                            OFFSET -1.933568 0.077527 -5.2e-05
                            CHANNELS 3 Zrotation Yrotation Xrotation
                          }
                        }
                      }
                    }
                  }
                  JOINT RightHandPinky1
                  {
                    OFFSET -2.866425 -0.342796 -1.584145
                    CHANNELS 3 Zrotation Yrotation Xrotation
                    JOINT RightHandPinky2
                    {
                      OFFSET -5.091371 -1.332055 -1.772385
                      CHANNELS 3 Zrotation Yrotation Xrotation
                      JOINT RightHandPinky3
                      {
                        OFFSET -3.062664 -4e-06 1e-06
                        CHANNELS 3 Zrotation Yrotation Xrotation
                        JOINT RightHandPinky4
                        {
                          OFFSET -1.546529 4e-06 -2e-06
                          CHANNELS 3 Zrotation Yrotation Xrotation
                          JOINT RightHandPinkyEnd
                          {
                            OFFSET -1.945119 -0.157718 0.057211
                            CHANNELS 3 Zrotation Yrotation Xrotation
                          }
                        }
                      }
                    }
                  }
                }
              }
            }
          }
        }
      }
    }
    JOINT LeftLeg
    {
      OFFSET 10.043214 -8.434526 2.595655
      CHANNELS 3 Zrotation Yrotation Xrotation
      JOINT LeftShin
      {
        OFFSET -1e-06 -43.221752 -0.802913
        CHANNELS 3 Zrotation Yrotation Xrotation
        JOINT LeftFoot
        {
          OFFSET 1e-06 -42.155094 -3.481523
          CHANNELS 3 Zrotation Yrotation Xrotation
          JOINT LeftToeBase
          {
            OFFSET 0.0 -5.059472 13.231529
            CHANNELS 3 Zrotation Yrotation Xrotation
            JOINT LeftToeEnd
            {
              OFFSET -0.009607 -1.647619 6.513017
              CHANNELS 3 Zrotation Yrotation Xrotation
            }
          }
        }
      }
    }
    JOINT RightLeg
    {
      OFFSET -10.047278 -8.29526 2.620317
      CHANNELS 3 Zrotation Yrotation Xrotation
      JOINT RightShin
      {
        OFFSET 1e-06 -43.362206 -0.805556
        CHANNELS 3 Zrotation Yrotation Xrotation
        JOINT RightFoot
        {
          OFFSET 2e-06 -42.117393 -3.478398
          CHANNELS 3 Zrotation Yrotation Xrotation
          JOINT RightToeBase
          {
            OFFSET -0.0 -5.079609 13.284196
            CHANNELS 3 Zrotation Yrotation Xrotation
            JOINT RightToeEnd
            {
              OFFSET 0.009532 -1.634378 6.460591
              CHANNELS 3 Zrotation Yrotation Xrotation
            }
          }
        }
      }
    }
  }
}
MOTION
Frames: 4
Frame Time: 0.03333333333333333
0.0 0.0 0.0 0.0 -0.0 0.0 1.660463 96.823433 -3.639075 -0.901429 -0.135807 4.938134 -1.24141 -1.473976 3.14321 -0.335247 -3.378292 -4.217035 -0.225438 -5.982343 9.958007 1.131621 2.001781 6.692582 -1.366997 -1.616009 -3.509224 0.768327 -1.459903 -14.097239 7.7e-05 -2.2e-05 6e-06 -0.000683 -0.365327 0.013779 0.673171 -4.101664 -10.66597 -0.67964 3.382025 -10.654655 -3.916623 -12.351528 14.088764 -51.479916 -8.781693 -4.833021 -175.371796 -52.533077 176.311707 3.683105 -4.664913 -16.071926 -5.882109 9.861288 0.70259 -10.936872 -0.360574 7.156209 -1e-06 8.774828 -2e-06 -16.198765 18.312769 5.908574 -1.844035 2.498506 -2.507279 -10.163604 4.678947 4.62111 -20.97603 -2e-06 2e-06 -21.226295 2.451699 -3.594002 1e-06 -6e-06 1e-06 -1.362683 2.240799 -0.746325 -21.334921 0.584909 3.008325 -13.821218 -1e-06 1e-06 -23.887175 -0.249078 -0.839484 -60.091553 2.403939 -1.809022 -0.294023 1.679688 0.833257 -14.218214 0.093216 1.30058 -34.212055 -0.287562 0.967169 -20.033218 0.964538 1.212843 0.0 0.0 -1e-06 -3.440392 0.788233 0.501655 -15.928192 -3.16731 2.999709 -6.338828 -1e-06 2e-06 -18.123453 3.648186 -4.905672 -4e-06 -0.0 -1e-06 19.282532 -2.199036 19.437479 50.053379 -17.302336 14.729824 173.77269 78.650391 172.593262 -11.043703 14.99859 3.031689 2.243542 -5.255038 -3.180161 14.282895 -0.826594 6.952505 -2e-06 -12.690611 1e-06 15.924252 -17.678038 2.490239 1.665667 -1.955923 -2.878301 4.727799 -4.170588 4.993925 11.020528 3e-06 -3e-06 12.109056 -3.735719 -2.866787 0.0 -1e-06 -1e-06 1.291986 -1.92855 -1.49809 14.800132 0.567469 3.865607 14.242575 -1.341734 -6.660663 19.631969 0.143929 -0.648246 49.997616 -0.76646 -6.405652 0.353029 -1.511151 -0.03194 20.222794 3.684313 2.316628 18.787277 7e-06 -3e-06 10.751631 -0.479867 1.397906 1e-06 -0.0 1e-06 3.273808 0.305947 -0.580111 21.486818 11.830381 2.266131 8.162929 2e-06 -0.0 18.399088 -3.798986 -4.940578 4e-06 0.0 -1e-06 -1.418477 -0.314265 -2.468288 0.18299 0.187222 26.369038 0.954586 -4.992348 -17.917191 1.747648 -1.926606 -5.126881 0.0 0.0 2e-06 0.865716 -5.274595 -38.108746 -0.188172 -0.252168 61.821899 -1.08452 -12.560622 -2.774419 -1.43118 1.003906 -4.259327 -0.0 0.0 -1e-06 
0.0 0.0 0.0 0.0 -0.0 0.0 1.495566 98.58831 0.121669 -2.377464 0.785446 5.686395 -0.371437 -1.635745 2.442831 -0.056605 -4.069507 -4.411527 0.670357 -6.751656 9.580829 0.879811 2.004743 6.428015 -1.22023 -0.930323 -3.609369 0.540792 -0.641119 -13.598142 7.7e-05 -2.2e-05 6e-06 -0.006791 -0.29167 -0.005349 0.67967 -4.019518 -10.697254 -0.695678 3.443331 -10.68083 -1.468455 -13.084596 13.626887 -53.396965 -9.437908 -5.811192 -176.678925 -47.303192 177.281616 4.46168 -4.456086 -16.558353 -5.882118 9.861298 0.702593 -10.936886 -0.360572 7.156217 -3e-06 8.774834 1e-06 -16.00226 18.178432 5.864229 -1.844034 2.498507 -2.507281 -10.163615 4.678953 4.621118 -20.976053 5e-06 6e-06 -21.226318 2.451708 -3.594004 0.0 -6e-06 -2e-06 -1.362683 2.2408 -0.746323 -21.334946 0.584919 3.008331 -13.821234 3e-06 4e-06 -23.887203 -0.249069 -0.839486 -59.706421 2.46729 -1.864791 -0.294025 1.67969 0.833257 -14.21823 0.093219 1.300583 -34.212097 -0.287551 0.967171 -20.033243 0.964545 1.212844 1e-06 1e-06 -0.0 -3.440394 0.788235 0.501657 -15.928209 -3.167308 2.999714 -6.338836 1e-06 0.0 -18.123474 3.648194 -4.905674 -4e-06 0.0 -2e-06 18.985113 -2.482261 19.519245 50.338428 -20.328518 14.627919 178.621826 76.520348 177.264786 -10.017124 15.347618 1.171005 2.243543 -5.25504 -3.180161 14.2829 -0.826595 6.952508 -3e-06 -12.690609 2e-06 15.941368 -17.5763 2.4894 1.665668 -1.955922 -2.878301 4.727801 -4.170588 4.993928 11.020535 3e-06 -2e-06 12.10906 -3.735719 -2.866787 3e-06 -0.0 1e-06 1.291986 -1.928549 -1.498091 14.800139 0.567468 3.86561 14.242582 -1.341734 -6.660663 19.631979 0.143928 -0.648245 50.081219 -0.755522 -6.492927 0.353029 -1.511151 -0.031939 20.222803 3.684311 2.316631 18.787287 7e-06 -2e-06 10.751634 -0.479868 1.397906 -0.0 0.0 1e-06 3.273809 0.305946 -0.580112 21.48683 11.830383 2.266132 8.162932 1e-06 -1e-06 18.399092 -3.798986 -4.940579 2e-06 1e-06 -1e-06 0.336949 -1.506271 3.791246 0.116884 0.237591 20.58003 -0.074164 -4.832339 -9.652459 1.892025 -1.986451 -10.915637 -0.0 0.0 2e-06 4.290245 -6.324367 -36.348103 -0.175644 -0.06497 42.666977 0.52366 -9.828703 -1.304925 -1.433544 0.94828 -4.174151 0.0 0.0 -1e-06 
0.0 0.0 0.0 0.0 -0.0 0.0 1.458485 99.946945 8.223076 -1.925198 1.422501 6.330972 -0.382086 -1.654168 1.583099 -0.020133 -4.550305 -4.72083 0.654146 -7.02866 9.39137 0.876941 2.175204 6.279943 -0.953509 -0.631481 -3.617884 0.200163 -0.069793 -13.163071 7.7e-05 -2.2e-05 6e-06 -0.011955 -0.228154 -0.006433 0.683726 -3.954068 -10.726494 -0.708383 3.504699 -10.704738 -0.499772 -13.319987 13.401662 -54.778183 -9.339219 -4.232857 -178.331406 -43.774006 178.487885 4.115981 -4.517504 -15.660222 -5.882105 9.861288 0.702589 -10.936873 -0.360575 7.156208 1e-06 8.774826 -1e-06 -15.956152 17.937988 5.937838 -1.844034 2.498505 -2.50728 -10.163601 4.678946 4.62111 -20.976027 -5e-06 3e-06 -21.226288 2.451696 -3.594003 1e-06 -6e-06 -2e-06 -1.36268 2.240799 -0.746324 -21.334917 0.584909 3.008323 -13.821217 -3e-06 1e-06 -23.887175 -0.24908 -0.839482 -59.774994 2.518526 -1.637309 -0.294025 1.679687 0.833257 -14.21821 0.093215 1.300581 -34.212048 -0.287565 0.967171 -20.033215 0.964536 1.212843 1e-06 0.0 0.0 -3.440387 0.788233 0.501655 -15.928185 -3.16731 2.999709 -6.338827 -1e-06 -1e-06 -18.123447 3.648183 -4.905673 -4e-06 0.0 1e-06 18.456856 -2.421491 19.665707 51.900318 -21.95804 14.100774 -179.209885 75.045944 179.426315 -8.887217 14.853931 0.38047 2.243542 -5.255035 -3.180158 14.282892 -0.826594 6.952502 -3e-06 -12.690601 1e-06 15.679307 -17.461298 2.577611 1.665666 -1.955921 -2.878298 4.727798 -4.170587 4.993923 11.020526 3e-06 -1e-06 12.109051 -3.735713 -2.866783 1e-06 -1e-06 0.0 1.291986 -1.928548 -1.49809 14.800129 0.567469 3.865606 14.242574 -1.341735 -6.660659 19.631969 0.143927 -0.648245 50.001617 -0.775968 -6.399518 0.353029 -1.51115 -0.03194 20.222794 3.684308 2.316629 18.787271 6e-06 -2e-06 10.75163 -0.479867 1.397906 -0.0 0.0 1e-06 3.273807 0.305946 -0.580111 21.486816 11.830374 2.266131 8.162929 2e-06 -2e-06 18.399084 -3.798982 -4.940576 2e-06 0.0 -1e-06 0.108032 -2.339043 7.308161 -0.009094 0.4354 19.240902 -0.796895 -4.676082 0.44506 2.074202 -1.921651 -17.013842 0.0 0.0 3e-06 4.847472 -6.959937 -32.684402 0.034356 0.013796 22.137497 4.5356 -5.539202 -1.122724 -1.447357 0.972065 -4.341669 -0.0 -0.0 -1e-06 
0.0 0.0 0.0 0.0 -0.0 0.0 1.452638 100.652107 16.724579 -0.261404 1.779843 6.429026 -0.882758 -1.399507 0.863262 -0.137286 -4.602102 -4.882621 0.043842 -6.845718 9.362564 0.907316 2.511531 6.137757 -0.838822 -0.432492 -3.621414 -0.171516 0.13077 -12.37903 7.7e-05 -2.2e-05 6e-06 0.000121 -0.10387 -0.024798 0.686538 -3.832227 -10.72708 -0.686862 3.632359 -10.708018 -0.862998 -12.925555 13.336081 -56.078606 -8.546499 -0.684667 -179.246307 -41.878433 179.224823 3.619636 -4.865342 -14.470557 -5.88211 9.861295 0.70259 -10.936875 -0.360576 7.156213 -0.0 8.774831 -1e-06 -15.829549 18.054977 6.019911 -1.844034 2.498508 -2.50728 -10.163606 4.678948 4.621112 -20.976034 -2e-06 3e-06 -21.226297 2.4517 -3.594003 0.0 -6e-06 -0.0 -1.362683 2.240799 -0.746325 -21.334925 0.584912 3.008327 -13.821221 -1e-06 2e-06 -23.887182 -0.249076 -0.839486 -59.840805 2.614923 -1.562805 -0.294024 1.679688 0.833256 -14.218217 0.093215 1.300583 -34.21207 -0.287559 0.967174 -20.033226 0.96454 1.212844 2e-06 0.0 0.0 -3.440389 0.788235 0.501658 -15.928192 -3.16731 2.999711 -6.338831 0.0 -1e-06 -18.123457 3.648188 -4.905676 -4e-06 -0.0 -0.0 18.107157 -2.059646 19.766958 53.730282 -22.201389 13.201945 -178.925613 73.555206 -179.800537 -7.693983 13.727207 -0.459422 2.243541 -5.255037 -3.180157 14.282887 -0.826595 6.952501 -2e-06 -12.690605 1e-06 15.459599 -17.574535 2.630705 1.665666 -1.955922 -2.878298 4.727798 -4.170588 4.993924 11.020524 2e-06 -2e-06 12.109052 -3.735717 -2.866784 0.0 -0.0 1e-06 1.291986 -1.92855 -1.498089 14.800125 0.567469 3.865606 14.242568 -1.341737 -6.660658 19.631962 0.143927 -0.648246 49.748871 -0.891384 -6.312716 0.353029 -1.511151 -0.031941 20.222788 3.68431 2.31663 18.78727 6e-06 -2e-06 10.751627 -0.479869 1.397906 1e-06 1e-06 0.0 3.273806 0.305948 -0.58011 21.486809 11.830376 2.266132 8.162926 2e-06 -1e-06 18.399078 -3.798985 -4.940576 3e-06 0.0 -0.0 -1.355429 -3.559355 7.288455 -0.107581 0.536891 25.087627 -3.597981 -4.428055 9.99299 2.069664 -1.796266 -16.162443 0.0 0.0 1e-06 2.608005 -5.509555 -28.626266 0.048375 0.019861 7.159505 8.402678 -2.829656 -1.412914 -1.381092 1.002755 -4.433984 -0.0 -0.0 -0.0 
